<mxfile host="app.diagrams.net" modified="2023-11-25T16:35:11.931Z" agent="Mozilla/5.0 (Macintosh; Intel Mac OS X 10_15_7) AppleWebKit/537.36 (KHTML, like Gecko) Chrome/119.0.0.0 Safari/537.36" etag="xmi-dokEDiZEOByrOQQG" version="22.1.4" type="google">
  <diagram id="C5RBs43oDa-KdzZeNtuy" name="Page-1">
    <mxGraphModel grid="1" page="1" gridSize="10" guides="1" tooltips="1" connect="1" arrows="1" fold="1" pageScale="1" pageWidth="827" pageHeight="1169" math="0" shadow="0">
      <root>
        <mxCell id="WIyWlLk6GJQsqaUBKTNV-0" />
        <mxCell id="WIyWlLk6GJQsqaUBKTNV-1" parent="WIyWlLk6GJQsqaUBKTNV-0" />
        <mxCell id="BDDz4i-m53lXkyZx1Zcj-14" value="ingredients" style="rounded=0;whiteSpace=wrap;html=1;fontSize=16;" vertex="1" parent="WIyWlLk6GJQsqaUBKTNV-1">
          <mxGeometry x="515" y="981" width="90" height="40" as="geometry" />
        </mxCell>
        <mxCell id="BDDz4i-m53lXkyZx1Zcj-20" value="user" style="rounded=0;whiteSpace=wrap;html=1;" vertex="1" parent="WIyWlLk6GJQsqaUBKTNV-1">
          <mxGeometry x="340" y="489" width="120" height="30" as="geometry" />
        </mxCell>
        <mxCell id="BDDz4i-m53lXkyZx1Zcj-21" value="reg_user" style="rounded=0;whiteSpace=wrap;html=1;" vertex="1" parent="WIyWlLk6GJQsqaUBKTNV-1">
          <mxGeometry x="194.75" y="676" width="120" height="30" as="geometry" />
        </mxCell>
        <mxCell id="BDDz4i-m53lXkyZx1Zcj-22" value="admin_user" style="rounded=0;whiteSpace=wrap;html=1;" vertex="1" parent="WIyWlLk6GJQsqaUBKTNV-1">
          <mxGeometry x="505" y="676" width="120" height="30" as="geometry" />
        </mxCell>
        <mxCell id="BDDz4i-m53lXkyZx1Zcj-23" value="" style="endArrow=none;html=1;rounded=0;entryX=0;entryY=1;entryDx=0;entryDy=0;" edge="1" parent="WIyWlLk6GJQsqaUBKTNV-1" source="BDDz4i-m53lXkyZx1Zcj-21" target="BDDz4i-m53lXkyZx1Zcj-25">
          <mxGeometry width="50" height="50" relative="1" as="geometry">
            <mxPoint x="380" y="646" as="sourcePoint" />
            <mxPoint x="380" y="666" as="targetPoint" />
          </mxGeometry>
        </mxCell>
        <mxCell id="BDDz4i-m53lXkyZx1Zcj-24" value="" style="endArrow=none;html=1;rounded=0;entryX=1;entryY=1;entryDx=0;entryDy=0;" edge="1" parent="WIyWlLk6GJQsqaUBKTNV-1" source="BDDz4i-m53lXkyZx1Zcj-22" target="BDDz4i-m53lXkyZx1Zcj-25">
          <mxGeometry width="50" height="50" relative="1" as="geometry">
            <mxPoint x="480" y="686" as="sourcePoint" />
            <mxPoint x="430" y="666" as="targetPoint" />
          </mxGeometry>
        </mxCell>
        <mxCell id="BDDz4i-m53lXkyZx1Zcj-25" value="d" style="ellipse;whiteSpace=wrap;html=1;aspect=fixed;" vertex="1" parent="WIyWlLk6GJQsqaUBKTNV-1">
          <mxGeometry x="390" y="626" width="20" height="20" as="geometry" />
        </mxCell>
        <mxCell id="BDDz4i-m53lXkyZx1Zcj-26" value="&lt;u&gt;username&lt;/u&gt;" style="ellipse;whiteSpace=wrap;html=1;" vertex="1" parent="WIyWlLk6GJQsqaUBKTNV-1">
          <mxGeometry x="228.88" y="489" width="90" height="30" as="geometry" />
        </mxCell>
        <mxCell id="BDDz4i-m53lXkyZx1Zcj-27" value="name" style="ellipse;whiteSpace=wrap;html=1;" vertex="1" parent="WIyWlLk6GJQsqaUBKTNV-1">
          <mxGeometry x="390" y="439" width="70" height="30" as="geometry" />
        </mxCell>
        <mxCell id="BDDz4i-m53lXkyZx1Zcj-28" value="first_name" style="ellipse;whiteSpace=wrap;html=1;" vertex="1" parent="WIyWlLk6GJQsqaUBKTNV-1">
          <mxGeometry x="353" y="389" width="80" height="30" as="geometry" />
        </mxCell>
        <mxCell id="BDDz4i-m53lXkyZx1Zcj-29" value="last_name" style="ellipse;whiteSpace=wrap;html=1;" vertex="1" parent="WIyWlLk6GJQsqaUBKTNV-1">
          <mxGeometry x="445" y="389" width="70" height="30" as="geometry" />
        </mxCell>
        <mxCell id="BDDz4i-m53lXkyZx1Zcj-30" value="&lt;u&gt;email&lt;/u&gt;" style="ellipse;whiteSpace=wrap;html=1;" vertex="1" parent="WIyWlLk6GJQsqaUBKTNV-1">
          <mxGeometry x="244.75" y="450" width="80" height="30" as="geometry" />
        </mxCell>
        <mxCell id="BDDz4i-m53lXkyZx1Zcj-31" value="password" style="ellipse;whiteSpace=wrap;html=1;" vertex="1" parent="WIyWlLk6GJQsqaUBKTNV-1">
          <mxGeometry x="485" y="439" width="70" height="30" as="geometry" />
        </mxCell>
        <mxCell id="BDDz4i-m53lXkyZx1Zcj-33" value="" style="endArrow=none;html=1;rounded=0;" edge="1" parent="WIyWlLk6GJQsqaUBKTNV-1" source="BDDz4i-m53lXkyZx1Zcj-20" target="BDDz4i-m53lXkyZx1Zcj-31">
          <mxGeometry width="50" height="50" relative="1" as="geometry">
            <mxPoint x="425" y="589" as="sourcePoint" />
            <mxPoint x="475" y="539" as="targetPoint" />
          </mxGeometry>
        </mxCell>
        <mxCell id="BDDz4i-m53lXkyZx1Zcj-35" value="" style="endArrow=none;html=1;rounded=0;entryX=0.5;entryY=1;entryDx=0;entryDy=0;exitX=0.75;exitY=0;exitDx=0;exitDy=0;" edge="1" parent="WIyWlLk6GJQsqaUBKTNV-1" source="BDDz4i-m53lXkyZx1Zcj-20" target="BDDz4i-m53lXkyZx1Zcj-27">
          <mxGeometry width="50" height="50" relative="1" as="geometry">
            <mxPoint x="430" y="489" as="sourcePoint" />
            <mxPoint x="430" y="579" as="targetPoint" />
          </mxGeometry>
        </mxCell>
        <mxCell id="BDDz4i-m53lXkyZx1Zcj-36" value="" style="endArrow=none;html=1;rounded=0;" edge="1" parent="WIyWlLk6GJQsqaUBKTNV-1" source="BDDz4i-m53lXkyZx1Zcj-20" target="BDDz4i-m53lXkyZx1Zcj-26">
          <mxGeometry width="50" height="50" relative="1" as="geometry">
            <mxPoint x="380" y="629" as="sourcePoint" />
            <mxPoint x="430" y="579" as="targetPoint" />
          </mxGeometry>
        </mxCell>
        <mxCell id="BDDz4i-m53lXkyZx1Zcj-37" value="" style="endArrow=none;html=1;rounded=0;" edge="1" parent="WIyWlLk6GJQsqaUBKTNV-1" source="BDDz4i-m53lXkyZx1Zcj-20" target="BDDz4i-m53lXkyZx1Zcj-30">
          <mxGeometry width="50" height="50" relative="1" as="geometry">
            <mxPoint x="380" y="629" as="sourcePoint" />
            <mxPoint x="430" y="579" as="targetPoint" />
          </mxGeometry>
        </mxCell>
        <mxCell id="BDDz4i-m53lXkyZx1Zcj-38" value="" style="endArrow=none;html=1;rounded=0;" edge="1" parent="WIyWlLk6GJQsqaUBKTNV-1" source="BDDz4i-m53lXkyZx1Zcj-27" target="BDDz4i-m53lXkyZx1Zcj-28">
          <mxGeometry width="50" height="50" relative="1" as="geometry">
            <mxPoint x="380" y="629" as="sourcePoint" />
            <mxPoint x="430" y="579" as="targetPoint" />
          </mxGeometry>
        </mxCell>
        <mxCell id="BDDz4i-m53lXkyZx1Zcj-39" value="" style="endArrow=none;html=1;rounded=0;" edge="1" parent="WIyWlLk6GJQsqaUBKTNV-1" source="BDDz4i-m53lXkyZx1Zcj-27" target="BDDz4i-m53lXkyZx1Zcj-29">
          <mxGeometry width="50" height="50" relative="1" as="geometry">
            <mxPoint x="380" y="629" as="sourcePoint" />
            <mxPoint x="430" y="579" as="targetPoint" />
          </mxGeometry>
        </mxCell>
        <mxCell id="BDDz4i-m53lXkyZx1Zcj-40" value="" style="shape=link;html=1;rounded=0;entryX=0.5;entryY=0;entryDx=0;entryDy=0;" edge="1" parent="WIyWlLk6GJQsqaUBKTNV-1" source="BDDz4i-m53lXkyZx1Zcj-20" target="BDDz4i-m53lXkyZx1Zcj-25">
          <mxGeometry width="100" relative="1" as="geometry">
            <mxPoint x="351.25" y="566" as="sourcePoint" />
            <mxPoint x="451.25" y="566" as="targetPoint" />
          </mxGeometry>
        </mxCell>
        <mxCell id="BDDz4i-m53lXkyZx1Zcj-43" value="" style="shape=requiredInterface;html=1;verticalLabelPosition=bottom;sketch=0;rotation=-210;" vertex="1" parent="WIyWlLk6GJQsqaUBKTNV-1">
          <mxGeometry x="338" y="654.77" width="10" height="13.54" as="geometry" />
        </mxCell>
        <mxCell id="BDDz4i-m53lXkyZx1Zcj-44" value="" style="shape=requiredInterface;html=1;verticalLabelPosition=bottom;sketch=0;rotation=50;" vertex="1" parent="WIyWlLk6GJQsqaUBKTNV-1">
          <mxGeometry x="450" y="651.77" width="10" height="13.54" as="geometry" />
        </mxCell>
        <mxCell id="BDDz4i-m53lXkyZx1Zcj-45" value="user_type" style="ellipse;whiteSpace=wrap;html=1;" vertex="1" parent="WIyWlLk6GJQsqaUBKTNV-1">
          <mxGeometry x="505" y="489" width="70" height="25" as="geometry" />
        </mxCell>
        <mxCell id="BDDz4i-m53lXkyZx1Zcj-46" value="" style="endArrow=none;html=1;rounded=0;" edge="1" parent="WIyWlLk6GJQsqaUBKTNV-1" source="BDDz4i-m53lXkyZx1Zcj-20" target="BDDz4i-m53lXkyZx1Zcj-45">
          <mxGeometry width="50" height="50" relative="1" as="geometry">
            <mxPoint x="460" y="534" as="sourcePoint" />
            <mxPoint x="475" y="569" as="targetPoint" />
          </mxGeometry>
        </mxCell>
        <mxCell id="BDDz4i-m53lXkyZx1Zcj-47" value="&lt;font style=&quot;font-size: 11px;&quot;&gt;&quot;admin_user&quot;&lt;/font&gt;" style="text;html=1;strokeColor=none;fillColor=none;align=center;verticalAlign=middle;whiteSpace=wrap;rounded=0;" vertex="1" parent="WIyWlLk6GJQsqaUBKTNV-1">
          <mxGeometry x="430" y="631.26" width="60" height="30" as="geometry" />
        </mxCell>
        <mxCell id="BDDz4i-m53lXkyZx1Zcj-48" value="&lt;font style=&quot;font-size: 11px;&quot;&gt;user_type&lt;/font&gt;" style="text;html=1;align=center;verticalAlign=middle;resizable=0;points=[];autosize=1;strokeColor=none;fillColor=none;" vertex="1" parent="WIyWlLk6GJQsqaUBKTNV-1">
          <mxGeometry x="394" y="547" width="70" height="30" as="geometry" />
        </mxCell>
        <mxCell id="BDDz4i-m53lXkyZx1Zcj-49" value="&quot;reg_user&quot;" style="text;html=1;strokeColor=none;fillColor=none;align=center;verticalAlign=middle;whiteSpace=wrap;rounded=0;fontSize=11;" vertex="1" parent="WIyWlLk6GJQsqaUBKTNV-1">
          <mxGeometry x="322" y="632.26" width="60" height="30" as="geometry" />
        </mxCell>
        <mxCell id="BDDz4i-m53lXkyZx1Zcj-69" value="recipes" style="rounded=0;whiteSpace=wrap;html=1;" vertex="1" parent="WIyWlLk6GJQsqaUBKTNV-1">
          <mxGeometry x="213.75" y="986" width="100" height="30" as="geometry" />
        </mxCell>
        <mxCell id="BDDz4i-m53lXkyZx1Zcj-70" value="creates" style="rhombus;whiteSpace=wrap;html=1;" vertex="1" parent="WIyWlLk6GJQsqaUBKTNV-1">
          <mxGeometry x="59.75" y="789.13" width="60" height="47.5" as="geometry" />
        </mxCell>
        <mxCell id="BDDz4i-m53lXkyZx1Zcj-71" value="" style="endArrow=none;html=1;rounded=0;" edge="1" parent="WIyWlLk6GJQsqaUBKTNV-1" source="BDDz4i-m53lXkyZx1Zcj-21" target="BDDz4i-m53lXkyZx1Zcj-70">
          <mxGeometry width="50" height="50" relative="1" as="geometry">
            <mxPoint x="280.53846153846166" y="706.77" as="sourcePoint" />
            <mxPoint x="392" y="796.77" as="targetPoint" />
          </mxGeometry>
        </mxCell>
        <mxCell id="BDDz4i-m53lXkyZx1Zcj-74" value="image" style="ellipse;whiteSpace=wrap;html=1;" vertex="1" parent="WIyWlLk6GJQsqaUBKTNV-1">
          <mxGeometry x="249.75" y="1045" width="65" height="20" as="geometry" />
        </mxCell>
        <mxCell id="BDDz4i-m53lXkyZx1Zcj-75" value="rec_name" style="ellipse;whiteSpace=wrap;html=1;" vertex="1" parent="WIyWlLk6GJQsqaUBKTNV-1">
          <mxGeometry x="102.5" y="1003.23" width="67.5" height="20" as="geometry" />
        </mxCell>
        <mxCell id="BDDz4i-m53lXkyZx1Zcj-76" value="description" style="ellipse;whiteSpace=wrap;html=1;" vertex="1" parent="WIyWlLk6GJQsqaUBKTNV-1">
          <mxGeometry x="166" y="1065" width="80" height="20" as="geometry" />
        </mxCell>
        <mxCell id="BDDz4i-m53lXkyZx1Zcj-77" value="" style="endArrow=none;html=1;rounded=0;" edge="1" parent="WIyWlLk6GJQsqaUBKTNV-1" source="BDDz4i-m53lXkyZx1Zcj-76" target="BDDz4i-m53lXkyZx1Zcj-69">
          <mxGeometry width="50" height="50" relative="1" as="geometry">
            <mxPoint x="234.56352698349338" y="1104.254767967614" as="sourcePoint" />
            <mxPoint x="293.75" y="881" as="targetPoint" />
          </mxGeometry>
        </mxCell>
        <mxCell id="BDDz4i-m53lXkyZx1Zcj-78" value="" style="endArrow=none;html=1;rounded=0;" edge="1" parent="WIyWlLk6GJQsqaUBKTNV-1" source="BDDz4i-m53lXkyZx1Zcj-75" target="BDDz4i-m53lXkyZx1Zcj-69">
          <mxGeometry width="50" height="50" relative="1" as="geometry">
            <mxPoint x="205.75" y="931" as="sourcePoint" />
            <mxPoint x="175.75" y="990.1747572815534" as="targetPoint" />
          </mxGeometry>
        </mxCell>
        <mxCell id="BDDz4i-m53lXkyZx1Zcj-79" value="" style="endArrow=none;html=1;rounded=0;" edge="1" parent="WIyWlLk6GJQsqaUBKTNV-1" source="BDDz4i-m53lXkyZx1Zcj-69" target="BDDz4i-m53lXkyZx1Zcj-74">
          <mxGeometry width="50" height="50" relative="1" as="geometry">
            <mxPoint x="243.75" y="931" as="sourcePoint" />
            <mxPoint x="293.75" y="881" as="targetPoint" />
          </mxGeometry>
        </mxCell>
        <mxCell id="BDDz4i-m53lXkyZx1Zcj-82" value="" style="endArrow=none;html=1;rounded=0;" edge="1" parent="WIyWlLk6GJQsqaUBKTNV-1" source="BDDz4i-m53lXkyZx1Zcj-158" target="BDDz4i-m53lXkyZx1Zcj-21">
          <mxGeometry width="50" height="50" relative="1" as="geometry">
            <mxPoint x="274" y="766.02" as="sourcePoint" />
            <mxPoint x="312.313829787234" y="706.77" as="targetPoint" />
          </mxGeometry>
        </mxCell>
        <mxCell id="BDDz4i-m53lXkyZx1Zcj-84" value="" style="endArrow=none;html=1;rounded=0;" edge="1" parent="WIyWlLk6GJQsqaUBKTNV-1" source="BDDz4i-m53lXkyZx1Zcj-69" target="BDDz4i-m53lXkyZx1Zcj-158">
          <mxGeometry width="50" height="50" relative="1" as="geometry">
            <mxPoint x="297.1642857142858" y="846.77" as="sourcePoint" />
            <mxPoint x="274" y="818.02" as="targetPoint" />
          </mxGeometry>
        </mxCell>
        <mxCell id="BDDz4i-m53lXkyZx1Zcj-98" value="rate_date" style="ellipse;whiteSpace=wrap;html=1;fontSize=11;" vertex="1" parent="WIyWlLk6GJQsqaUBKTNV-1">
          <mxGeometry x="230" y="778.12" width="58.75" height="20" as="geometry" />
        </mxCell>
        <mxCell id="BDDz4i-m53lXkyZx1Zcj-100" value="" style="endArrow=none;html=1;rounded=0;fontSize=11;exitX=0;exitY=1;exitDx=0;exitDy=0;" edge="1" parent="WIyWlLk6GJQsqaUBKTNV-1" source="BDDz4i-m53lXkyZx1Zcj-98" target="BDDz4i-m53lXkyZx1Zcj-158">
          <mxGeometry width="50" height="50" relative="1" as="geometry">
            <mxPoint x="361.5" y="787.35" as="sourcePoint" />
            <mxPoint x="220" y="796.37" as="targetPoint" />
          </mxGeometry>
        </mxCell>
        <mxCell id="BDDz4i-m53lXkyZx1Zcj-109" value="taste" style="ellipse;whiteSpace=wrap;html=1;align=center;" vertex="1" parent="WIyWlLk6GJQsqaUBKTNV-1">
          <mxGeometry x="239.63" y="806.48" width="39.5" height="20" as="geometry" />
        </mxCell>
        <mxCell id="BDDz4i-m53lXkyZx1Zcj-110" value="" style="endArrow=none;html=1;rounded=0;" edge="1" parent="WIyWlLk6GJQsqaUBKTNV-1" source="BDDz4i-m53lXkyZx1Zcj-109" target="BDDz4i-m53lXkyZx1Zcj-158">
          <mxGeometry width="50" height="50" relative="1" as="geometry">
            <mxPoint x="291.5" y="954.12" as="sourcePoint" />
            <mxPoint x="246.04338499861615" y="864.12" as="targetPoint" />
          </mxGeometry>
        </mxCell>
        <mxCell id="BDDz4i-m53lXkyZx1Zcj-137" value="price" style="ellipse;whiteSpace=wrap;html=1;" vertex="1" parent="WIyWlLk6GJQsqaUBKTNV-1">
          <mxGeometry x="637.5" y="1016" width="70" height="20" as="geometry" />
        </mxCell>
        <mxCell id="BDDz4i-m53lXkyZx1Zcj-138" value="" style="endArrow=none;html=1;rounded=0;" edge="1" parent="WIyWlLk6GJQsqaUBKTNV-1" source="BDDz4i-m53lXkyZx1Zcj-137" target="BDDz4i-m53lXkyZx1Zcj-14">
          <mxGeometry width="50" height="50" relative="1" as="geometry">
            <mxPoint x="728.25" y="966" as="sourcePoint" />
            <mxPoint x="585.25" y="937" as="targetPoint" />
          </mxGeometry>
        </mxCell>
        <mxCell id="BDDz4i-m53lXkyZx1Zcj-141" value="&lt;u&gt;ing_name&lt;/u&gt;" style="ellipse;whiteSpace=wrap;html=1;" vertex="1" parent="WIyWlLk6GJQsqaUBKTNV-1">
          <mxGeometry x="590" y="1046" width="70" height="30" as="geometry" />
        </mxCell>
        <mxCell id="BDDz4i-m53lXkyZx1Zcj-142" value="" style="endArrow=none;html=1;rounded=0;" edge="1" parent="WIyWlLk6GJQsqaUBKTNV-1" source="BDDz4i-m53lXkyZx1Zcj-141" target="BDDz4i-m53lXkyZx1Zcj-14">
          <mxGeometry width="50" height="50" relative="1" as="geometry">
            <mxPoint x="707.25" y="895" as="sourcePoint" />
            <mxPoint x="715.25" y="965.23" as="targetPoint" />
          </mxGeometry>
        </mxCell>
        <mxCell id="BDDz4i-m53lXkyZx1Zcj-148" value="" style="endArrow=none;html=1;rounded=0;" edge="1" parent="WIyWlLk6GJQsqaUBKTNV-1" source="BDDz4i-m53lXkyZx1Zcj-159" target="BDDz4i-m53lXkyZx1Zcj-21">
          <mxGeometry width="50" height="50" relative="1" as="geometry">
            <mxPoint x="373" y="772.02" as="sourcePoint" />
            <mxPoint x="411.313829787234" y="712.77" as="targetPoint" />
          </mxGeometry>
        </mxCell>
        <mxCell id="BDDz4i-m53lXkyZx1Zcj-149" value="" style="endArrow=none;html=1;rounded=0;" edge="1" parent="WIyWlLk6GJQsqaUBKTNV-1" source="BDDz4i-m53lXkyZx1Zcj-69" target="BDDz4i-m53lXkyZx1Zcj-159">
          <mxGeometry width="50" height="50" relative="1" as="geometry">
            <mxPoint x="396.1642857142858" y="852.77" as="sourcePoint" />
            <mxPoint x="373" y="824.02" as="targetPoint" />
          </mxGeometry>
        </mxCell>
        <mxCell id="BDDz4i-m53lXkyZx1Zcj-150" value="comm_date" style="ellipse;whiteSpace=wrap;html=1;fontSize=11;" vertex="1" parent="WIyWlLk6GJQsqaUBKTNV-1">
          <mxGeometry x="324.75" y="874.8199999999999" width="76" height="20" as="geometry" />
        </mxCell>
        <mxCell id="BDDz4i-m53lXkyZx1Zcj-151" value="" style="endArrow=none;html=1;rounded=0;fontSize=11;" edge="1" parent="WIyWlLk6GJQsqaUBKTNV-1" source="BDDz4i-m53lXkyZx1Zcj-150" target="BDDz4i-m53lXkyZx1Zcj-159">
          <mxGeometry width="50" height="50" relative="1" as="geometry">
            <mxPoint x="460.5" y="793.35" as="sourcePoint" />
            <mxPoint x="319" y="802.37" as="targetPoint" />
          </mxGeometry>
        </mxCell>
        <mxCell id="BDDz4i-m53lXkyZx1Zcj-158" value="rates" style="rhombus;whiteSpace=wrap;html=1;" vertex="1" parent="WIyWlLk6GJQsqaUBKTNV-1">
          <mxGeometry x="170" y="785.49" width="60" height="47.5" as="geometry" />
        </mxCell>
        <mxCell id="BDDz4i-m53lXkyZx1Zcj-159" value="comments" style="rhombus;whiteSpace=wrap;html=1;" vertex="1" parent="WIyWlLk6GJQsqaUBKTNV-1">
          <mxGeometry x="302.25" y="785.49" width="77.25" height="47.5" as="geometry" />
        </mxCell>
        <mxCell id="BDDz4i-m53lXkyZx1Zcj-162" value="comm_content" style="ellipse;whiteSpace=wrap;html=1;fontSize=11;" vertex="1" parent="WIyWlLk6GJQsqaUBKTNV-1">
          <mxGeometry x="364" y="842.41" width="90" height="20" as="geometry" />
        </mxCell>
        <mxCell id="BDDz4i-m53lXkyZx1Zcj-163" value="" style="endArrow=none;html=1;rounded=0;fontSize=11;" edge="1" parent="WIyWlLk6GJQsqaUBKTNV-1" source="BDDz4i-m53lXkyZx1Zcj-162" target="BDDz4i-m53lXkyZx1Zcj-159">
          <mxGeometry width="50" height="50" relative="1" as="geometry">
            <mxPoint x="394.5" y="805.35" as="sourcePoint" />
            <mxPoint x="382.5" y="817.35" as="targetPoint" />
          </mxGeometry>
        </mxCell>
        <mxCell id="BDDz4i-m53lXkyZx1Zcj-164" value="prep_ease" style="ellipse;whiteSpace=wrap;html=1;align=center;" vertex="1" parent="WIyWlLk6GJQsqaUBKTNV-1">
          <mxGeometry x="236.25" y="836.37" width="75.25" height="26.04" as="geometry" />
        </mxCell>
        <mxCell id="BDDz4i-m53lXkyZx1Zcj-165" value="sends_message" style="rhombus;whiteSpace=wrap;html=1;" vertex="1" parent="WIyWlLk6GJQsqaUBKTNV-1">
          <mxGeometry x="-49.99" y="704.48" width="114.25" height="66" as="geometry" />
        </mxCell>
        <mxCell id="BDDz4i-m53lXkyZx1Zcj-166" value="" style="endArrow=none;html=1;rounded=0;entryX=0.5;entryY=1;entryDx=0;entryDy=0;" edge="1" parent="WIyWlLk6GJQsqaUBKTNV-1" source="BDDz4i-m53lXkyZx1Zcj-21" target="BDDz4i-m53lXkyZx1Zcj-165">
          <mxGeometry width="50" height="50" relative="1" as="geometry">
            <mxPoint x="414" y="798" as="sourcePoint" />
            <mxPoint x="90" y="680" as="targetPoint" />
          </mxGeometry>
        </mxCell>
        <mxCell id="BDDz4i-m53lXkyZx1Zcj-167" value="" style="endArrow=none;html=1;rounded=0;entryX=0.5;entryY=0;entryDx=0;entryDy=0;" edge="1" parent="WIyWlLk6GJQsqaUBKTNV-1" source="BDDz4i-m53lXkyZx1Zcj-21" target="BDDz4i-m53lXkyZx1Zcj-165">
          <mxGeometry width="50" height="50" relative="1" as="geometry">
            <mxPoint x="424" y="808" as="sourcePoint" />
            <mxPoint x="345" y="726" as="targetPoint" />
          </mxGeometry>
        </mxCell>
        <mxCell id="BDDz4i-m53lXkyZx1Zcj-168" value="" style="endArrow=none;html=1;rounded=0;" edge="1" parent="WIyWlLk6GJQsqaUBKTNV-1" source="BDDz4i-m53lXkyZx1Zcj-164" target="BDDz4i-m53lXkyZx1Zcj-158">
          <mxGeometry width="50" height="50" relative="1" as="geometry">
            <mxPoint x="246.5" y="831.35" as="sourcePoint" />
            <mxPoint x="231.5" y="826.35" as="targetPoint" />
          </mxGeometry>
        </mxCell>
        <mxCell id="BDDz4i-m53lXkyZx1Zcj-169" value="dm_content" style="ellipse;whiteSpace=wrap;html=1;fontSize=11;" vertex="1" parent="WIyWlLk6GJQsqaUBKTNV-1">
          <mxGeometry x="-120" y="765.49" width="90" height="20" as="geometry" />
        </mxCell>
        <mxCell id="BDDz4i-m53lXkyZx1Zcj-170" value="" style="endArrow=none;html=1;rounded=0;fontSize=11;" edge="1" parent="WIyWlLk6GJQsqaUBKTNV-1" source="BDDz4i-m53lXkyZx1Zcj-169" target="BDDz4i-m53lXkyZx1Zcj-165">
          <mxGeometry width="50" height="50" relative="1" as="geometry">
            <mxPoint x="50.5" y="585.99" as="sourcePoint" />
            <mxPoint x="33.5" y="607.99" as="targetPoint" />
          </mxGeometry>
        </mxCell>
        <mxCell id="BDDz4i-m53lXkyZx1Zcj-171" style="edgeStyle=none;curved=1;rounded=0;orthogonalLoop=1;jettySize=auto;html=1;exitX=0.5;exitY=0;exitDx=0;exitDy=0;fontSize=12;startSize=8;endSize=8;" edge="1" parent="WIyWlLk6GJQsqaUBKTNV-1" source="BDDz4i-m53lXkyZx1Zcj-169" target="BDDz4i-m53lXkyZx1Zcj-169">
          <mxGeometry relative="1" as="geometry" />
        </mxCell>
        <mxCell id="BDDz4i-m53lXkyZx1Zcj-173" value="" style="endArrow=none;html=1;rounded=0;" edge="1" parent="WIyWlLk6GJQsqaUBKTNV-1" source="BDDz4i-m53lXkyZx1Zcj-21" target="BDDz4i-m53lXkyZx1Zcj-174">
          <mxGeometry width="50" height="50" relative="1" as="geometry">
            <mxPoint x="470" y="502" as="sourcePoint" />
            <mxPoint x="497.4829966891077" y="525.9302735928709" as="targetPoint" />
          </mxGeometry>
        </mxCell>
        <mxCell id="BDDz4i-m53lXkyZx1Zcj-174" value="followers" style="ellipse;whiteSpace=wrap;html=1;align=center;dashed=1;" vertex="1" parent="WIyWlLk6GJQsqaUBKTNV-1">
          <mxGeometry x="244.75" y="605.26" width="69" height="25" as="geometry" />
        </mxCell>
        <mxCell id="BDDz4i-m53lXkyZx1Zcj-176" value="" style="endArrow=none;html=1;rounded=0;exitX=0;exitY=0;exitDx=0;exitDy=0;" edge="1" parent="WIyWlLk6GJQsqaUBKTNV-1" source="BDDz4i-m53lXkyZx1Zcj-181" target="BDDz4i-m53lXkyZx1Zcj-21">
          <mxGeometry width="50" height="50" relative="1" as="geometry">
            <mxPoint x="645.6456336064145" y="739.3039907617219" as="sourcePoint" />
            <mxPoint x="642" y="662.26" as="targetPoint" />
          </mxGeometry>
        </mxCell>
        <mxCell id="BDDz4i-m53lXkyZx1Zcj-177" value="replies_misuse" style="rhombus;whiteSpace=wrap;html=1;" vertex="1" parent="WIyWlLk6GJQsqaUBKTNV-1">
          <mxGeometry x="680" y="760" width="124.46" height="63.12" as="geometry" />
        </mxCell>
        <mxCell id="BDDz4i-m53lXkyZx1Zcj-178" value="" style="endArrow=none;html=1;rounded=0;exitX=0.5;exitY=0;exitDx=0;exitDy=0;" edge="1" parent="WIyWlLk6GJQsqaUBKTNV-1" source="BDDz4i-m53lXkyZx1Zcj-177" target="BDDz4i-m53lXkyZx1Zcj-22">
          <mxGeometry width="50" height="50" relative="1" as="geometry">
            <mxPoint x="762.5" y="724.26" as="sourcePoint" />
            <mxPoint x="810" y="662.26" as="targetPoint" />
          </mxGeometry>
        </mxCell>
        <mxCell id="BDDz4i-m53lXkyZx1Zcj-179" value="" style="shape=link;html=1;rounded=0;entryX=0.5;entryY=1;entryDx=0;entryDy=0;exitX=0.967;exitY=0.043;exitDx=0;exitDy=0;exitPerimeter=0;" edge="1" parent="WIyWlLk6GJQsqaUBKTNV-1" source="BDDz4i-m53lXkyZx1Zcj-180" target="BDDz4i-m53lXkyZx1Zcj-177">
          <mxGeometry width="100" relative="1" as="geometry">
            <mxPoint x="864.46" y="879.9" as="sourcePoint" />
            <mxPoint x="1143.21" y="764.4" as="targetPoint" />
          </mxGeometry>
        </mxCell>
        <mxCell id="BDDz4i-m53lXkyZx1Zcj-180" value="misuse" style="shape=ext;margin=3;double=1;whiteSpace=wrap;html=1;align=center;" vertex="1" parent="WIyWlLk6GJQsqaUBKTNV-1">
          <mxGeometry x="620.96" y="875.4" width="90" height="30" as="geometry" />
        </mxCell>
        <mxCell id="BDDz4i-m53lXkyZx1Zcj-181" value="reports" style="shape=rhombus;double=1;perimeter=rhombusPerimeter;whiteSpace=wrap;html=1;align=center;" vertex="1" parent="WIyWlLk6GJQsqaUBKTNV-1">
          <mxGeometry x="505" y="864.4000000000001" width="58" height="52" as="geometry" />
        </mxCell>
        <mxCell id="BDDz4i-m53lXkyZx1Zcj-182" value="answer_m" style="ellipse;whiteSpace=wrap;html=1;align=center;" vertex="1" parent="WIyWlLk6GJQsqaUBKTNV-1">
          <mxGeometry x="829.46" y="790.62" width="70" height="20" as="geometry" />
        </mxCell>
        <mxCell id="BDDz4i-m53lXkyZx1Zcj-184" value="" style="endArrow=none;html=1;rounded=0;" edge="1" parent="WIyWlLk6GJQsqaUBKTNV-1" source="BDDz4i-m53lXkyZx1Zcj-177" target="BDDz4i-m53lXkyZx1Zcj-182">
          <mxGeometry width="50" height="50" relative="1" as="geometry">
            <mxPoint x="787.46" y="788.14" as="sourcePoint" />
            <mxPoint x="653.46" y="736.14" as="targetPoint" />
          </mxGeometry>
        </mxCell>
        <mxCell id="BDDz4i-m53lXkyZx1Zcj-187" value="misuse_type" style="ellipse;whiteSpace=wrap;html=1;" vertex="1" parent="WIyWlLk6GJQsqaUBKTNV-1">
          <mxGeometry x="630" y="922.91" width="80.96" height="20" as="geometry" />
        </mxCell>
        <mxCell id="BDDz4i-m53lXkyZx1Zcj-188" value="misuse_content" style="ellipse;whiteSpace=wrap;html=1;" vertex="1" parent="WIyWlLk6GJQsqaUBKTNV-1">
          <mxGeometry x="724.46" y="930" width="95.54" height="20" as="geometry" />
        </mxCell>
        <mxCell id="BDDz4i-m53lXkyZx1Zcj-189" value="" style="endArrow=none;html=1;rounded=0;" edge="1" parent="WIyWlLk6GJQsqaUBKTNV-1" source="BDDz4i-m53lXkyZx1Zcj-180" target="BDDz4i-m53lXkyZx1Zcj-188">
          <mxGeometry width="50" height="50" relative="1" as="geometry">
            <mxPoint x="663.46" y="885.14" as="sourcePoint" />
            <mxPoint x="614.46" y="825.14" as="targetPoint" />
          </mxGeometry>
        </mxCell>
        <mxCell id="BDDz4i-m53lXkyZx1Zcj-190" value="" style="endArrow=none;html=1;rounded=0;" edge="1" parent="WIyWlLk6GJQsqaUBKTNV-1" source="BDDz4i-m53lXkyZx1Zcj-180" target="BDDz4i-m53lXkyZx1Zcj-187">
          <mxGeometry width="50" height="50" relative="1" as="geometry">
            <mxPoint x="673.46" y="895.14" as="sourcePoint" />
            <mxPoint x="625.9320445732919" y="923.4624338808181" as="targetPoint" />
          </mxGeometry>
        </mxCell>
        <mxCell id="BDDz4i-m53lXkyZx1Zcj-192" value="" style="endArrow=none;html=1;rounded=0;" edge="1" parent="WIyWlLk6GJQsqaUBKTNV-1" source="BDDz4i-m53lXkyZx1Zcj-180" target="BDDz4i-m53lXkyZx1Zcj-195">
          <mxGeometry width="50" height="50" relative="1" as="geometry">
            <mxPoint x="657.46" y="915.14" as="sourcePoint" />
            <mxPoint x="748.201939783838" y="907.2102042814814" as="targetPoint" />
          </mxGeometry>
        </mxCell>
        <mxCell id="BDDz4i-m53lXkyZx1Zcj-195" value="&lt;span style=&quot;border-bottom: 1px dotted&quot;&gt;misuse_id&lt;/span&gt;" style="ellipse;whiteSpace=wrap;html=1;align=center;fontSize=16;" vertex="1" parent="WIyWlLk6GJQsqaUBKTNV-1">
          <mxGeometry x="731.96" y="882.55" width="108.04" height="32.41" as="geometry" />
        </mxCell>
        <mxCell id="BDDz4i-m53lXkyZx1Zcj-196" value="avatar" style="ellipse;whiteSpace=wrap;html=1;" vertex="1" parent="WIyWlLk6GJQsqaUBKTNV-1">
          <mxGeometry x="273" y="409" width="80" height="30" as="geometry" />
        </mxCell>
        <mxCell id="BDDz4i-m53lXkyZx1Zcj-197" value="" style="endArrow=none;html=1;rounded=0;" edge="1" parent="WIyWlLk6GJQsqaUBKTNV-1" source="BDDz4i-m53lXkyZx1Zcj-20" target="BDDz4i-m53lXkyZx1Zcj-196">
          <mxGeometry width="50" height="50" relative="1" as="geometry">
            <mxPoint x="359.5" y="449" as="sourcePoint" />
            <mxPoint x="448.5" y="539" as="targetPoint" />
          </mxGeometry>
        </mxCell>
        <mxCell id="BDDz4i-m53lXkyZx1Zcj-198" value="dietary_type" style="ellipse;whiteSpace=wrap;html=1;" vertex="1" parent="WIyWlLk6GJQsqaUBKTNV-1">
          <mxGeometry x="133.75" y="1036" width="80" height="20" as="geometry" />
        </mxCell>
        <mxCell id="BDDz4i-m53lXkyZx1Zcj-199" value="" style="endArrow=none;html=1;rounded=0;" edge="1" parent="WIyWlLk6GJQsqaUBKTNV-1" source="BDDz4i-m53lXkyZx1Zcj-198" target="BDDz4i-m53lXkyZx1Zcj-69">
          <mxGeometry width="50" height="50" relative="1" as="geometry">
            <mxPoint x="193.75" y="952.5" as="sourcePoint" />
            <mxPoint x="249.75" y="1037.73" as="targetPoint" />
          </mxGeometry>
        </mxCell>
        <mxCell id="BDDz4i-m53lXkyZx1Zcj-201" value="follows" style="rhombus;whiteSpace=wrap;html=1;" vertex="1" parent="WIyWlLk6GJQsqaUBKTNV-1">
          <mxGeometry x="-51.62" y="606.74" width="117.5" height="69.26" as="geometry" />
        </mxCell>
        <mxCell id="BDDz4i-m53lXkyZx1Zcj-202" value="" style="endArrow=none;html=1;rounded=0;entryX=0.5;entryY=1;entryDx=0;entryDy=0;" edge="1" parent="WIyWlLk6GJQsqaUBKTNV-1" source="BDDz4i-m53lXkyZx1Zcj-21" target="BDDz4i-m53lXkyZx1Zcj-201">
          <mxGeometry width="50" height="50" relative="1" as="geometry">
            <mxPoint x="329.25" y="622" as="sourcePoint" />
            <mxPoint x="169.25" y="602" as="targetPoint" />
          </mxGeometry>
        </mxCell>
        <mxCell id="BDDz4i-m53lXkyZx1Zcj-203" value="" style="endArrow=none;html=1;rounded=0;entryX=0.5;entryY=0;entryDx=0;entryDy=0;" edge="1" parent="WIyWlLk6GJQsqaUBKTNV-1" source="BDDz4i-m53lXkyZx1Zcj-21" target="BDDz4i-m53lXkyZx1Zcj-201">
          <mxGeometry width="50" height="50" relative="1" as="geometry">
            <mxPoint x="329.25" y="604" as="sourcePoint" />
            <mxPoint x="424.25" y="648" as="targetPoint" />
          </mxGeometry>
        </mxCell>
        <mxCell id="BDDz4i-m53lXkyZx1Zcj-204" value="biography" style="ellipse;whiteSpace=wrap;html=1;" vertex="1" parent="WIyWlLk6GJQsqaUBKTNV-1">
          <mxGeometry x="166" y="603.26" width="68" height="29" as="geometry" />
        </mxCell>
        <mxCell id="BDDz4i-m53lXkyZx1Zcj-205" value="" style="endArrow=none;html=1;rounded=0;" edge="1" parent="WIyWlLk6GJQsqaUBKTNV-1" source="BDDz4i-m53lXkyZx1Zcj-21" target="BDDz4i-m53lXkyZx1Zcj-204">
          <mxGeometry width="50" height="50" relative="1" as="geometry">
            <mxPoint x="379.5" y="428" as="sourcePoint" />
            <mxPoint x="456" y="478" as="targetPoint" />
          </mxGeometry>
        </mxCell>
        <mxCell id="BDDz4i-m53lXkyZx1Zcj-214" value="" style="endArrow=none;html=1;rounded=0;" edge="1" parent="WIyWlLk6GJQsqaUBKTNV-1" source="BDDz4i-m53lXkyZx1Zcj-216" target="BDDz4i-m53lXkyZx1Zcj-14">
          <mxGeometry width="50" height="50" relative="1" as="geometry">
            <mxPoint x="470" y="921.28" as="sourcePoint" />
            <mxPoint x="444" y="861.26" as="targetPoint" />
          </mxGeometry>
        </mxCell>
        <mxCell id="BDDz4i-m53lXkyZx1Zcj-216" value="consists_of" style="rhombus;whiteSpace=wrap;html=1;" vertex="1" parent="WIyWlLk6GJQsqaUBKTNV-1">
          <mxGeometry x="369" y="971" width="85" height="60" as="geometry" />
        </mxCell>
        <mxCell id="BDDz4i-m53lXkyZx1Zcj-219" value="" style="endArrow=none;html=1;rounded=0;" edge="1" parent="WIyWlLk6GJQsqaUBKTNV-1" source="BDDz4i-m53lXkyZx1Zcj-221" target="BDDz4i-m53lXkyZx1Zcj-22">
          <mxGeometry width="50" height="50" relative="1" as="geometry">
            <mxPoint x="450.25" y="678.65" as="sourcePoint" />
            <mxPoint x="343.25" y="612.63" as="targetPoint" />
          </mxGeometry>
        </mxCell>
        <mxCell id="BDDz4i-m53lXkyZx1Zcj-220" value="" style="endArrow=none;html=1;rounded=0;" edge="1" parent="WIyWlLk6GJQsqaUBKTNV-1" source="BDDz4i-m53lXkyZx1Zcj-21" target="BDDz4i-m53lXkyZx1Zcj-221">
          <mxGeometry width="50" height="50" relative="1" as="geometry">
            <mxPoint x="346.25" y="916.63" as="sourcePoint" />
            <mxPoint x="450.25" y="730.65" as="targetPoint" />
          </mxGeometry>
        </mxCell>
        <mxCell id="BDDz4i-m53lXkyZx1Zcj-221" value="request_bt" style="rhombus;whiteSpace=wrap;html=1;" vertex="1" parent="WIyWlLk6GJQsqaUBKTNV-1">
          <mxGeometry x="490" y="780.75" width="81.25" height="55.62" as="geometry" />
        </mxCell>
        <mxCell id="BDDz4i-m53lXkyZx1Zcj-224" value="" style="endArrow=none;html=1;rounded=0;" edge="1" parent="WIyWlLk6GJQsqaUBKTNV-1" source="BDDz4i-m53lXkyZx1Zcj-21" target="BDDz4i-m53lXkyZx1Zcj-225">
          <mxGeometry width="50" height="50" relative="1" as="geometry">
            <mxPoint x="244.75" y="646" as="sourcePoint" />
            <mxPoint x="400" y="670.65" as="targetPoint" />
          </mxGeometry>
        </mxCell>
        <mxCell id="BDDz4i-m53lXkyZx1Zcj-225" value="replies_bt" style="rhombus;whiteSpace=wrap;html=1;" vertex="1" parent="WIyWlLk6GJQsqaUBKTNV-1">
          <mxGeometry x="439.38" y="714.86" width="81.25" height="55.62" as="geometry" />
        </mxCell>
        <mxCell id="BDDz4i-m53lXkyZx1Zcj-226" value="answer_bt" style="ellipse;whiteSpace=wrap;html=1;align=center;" vertex="1" parent="WIyWlLk6GJQsqaUBKTNV-1">
          <mxGeometry x="394" y="694.86" width="70" height="20" as="geometry" />
        </mxCell>
        <mxCell id="BDDz4i-m53lXkyZx1Zcj-227" value="" style="endArrow=none;html=1;rounded=0;" edge="1" parent="WIyWlLk6GJQsqaUBKTNV-1" source="BDDz4i-m53lXkyZx1Zcj-225" target="BDDz4i-m53lXkyZx1Zcj-226">
          <mxGeometry width="50" height="50" relative="1" as="geometry">
            <mxPoint x="377.77" y="686.38" as="sourcePoint" />
            <mxPoint x="234.23000000000002" y="626.52" as="targetPoint" />
          </mxGeometry>
        </mxCell>
        <mxCell id="BDDz4i-m53lXkyZx1Zcj-228" value="" style="shape=link;html=1;rounded=0;" edge="1" parent="WIyWlLk6GJQsqaUBKTNV-1" source="BDDz4i-m53lXkyZx1Zcj-69" target="BDDz4i-m53lXkyZx1Zcj-70">
          <mxGeometry width="100" relative="1" as="geometry">
            <mxPoint x="160" y="950" as="sourcePoint" />
            <mxPoint x="74" y="882.55" as="targetPoint" />
          </mxGeometry>
        </mxCell>
        <mxCell id="BDDz4i-m53lXkyZx1Zcj-229" value="" style="shape=link;html=1;rounded=0;" edge="1" parent="WIyWlLk6GJQsqaUBKTNV-1" source="BDDz4i-m53lXkyZx1Zcj-180" target="BDDz4i-m53lXkyZx1Zcj-181">
          <mxGeometry width="100" relative="1" as="geometry">
            <mxPoint x="610" y="920" as="sourcePoint" />
            <mxPoint x="752" y="833" as="targetPoint" />
          </mxGeometry>
        </mxCell>
        <mxCell id="BDDz4i-m53lXkyZx1Zcj-231" value="" style="shape=link;html=1;rounded=0;" edge="1" parent="WIyWlLk6GJQsqaUBKTNV-1" source="BDDz4i-m53lXkyZx1Zcj-216" target="BDDz4i-m53lXkyZx1Zcj-69">
          <mxGeometry width="100" relative="1" as="geometry">
            <mxPoint x="433" y="1139.46" as="sourcePoint" />
            <mxPoint x="284" y="956.46" as="targetPoint" />
          </mxGeometry>
        </mxCell>
        <mxCell id="BDDz4i-m53lXkyZx1Zcj-232" value="" style="shape=link;html=1;rounded=0;" edge="1" parent="WIyWlLk6GJQsqaUBKTNV-1" source="BDDz4i-m53lXkyZx1Zcj-225" target="BDDz4i-m53lXkyZx1Zcj-22">
          <mxGeometry width="100" relative="1" as="geometry">
            <mxPoint x="718" y="887" as="sourcePoint" />
            <mxPoint x="752" y="833" as="targetPoint" />
          </mxGeometry>
        </mxCell>
        <mxCell id="BDDz4i-m53lXkyZx1Zcj-233" value="&lt;font style=&quot;font-size: 9px;&quot;&gt;(0,N)&lt;/font&gt;" style="text;html=1;strokeColor=none;fillColor=none;align=center;verticalAlign=middle;whiteSpace=wrap;rounded=0;fontSize=11;" vertex="1" parent="WIyWlLk6GJQsqaUBKTNV-1">
          <mxGeometry x="80" y="616" width="60" height="30" as="geometry" />
        </mxCell>
        <mxCell id="BDDz4i-m53lXkyZx1Zcj-234" value="&lt;font style=&quot;font-size: 9px;&quot;&gt;(0,N)&lt;/font&gt;" style="text;html=1;strokeColor=none;fillColor=none;align=center;verticalAlign=middle;whiteSpace=wrap;rounded=0;fontSize=11;" vertex="1" parent="WIyWlLk6GJQsqaUBKTNV-1">
          <mxGeometry x="48.63" y="654.77" width="60" height="30" as="geometry" />
        </mxCell>
        <mxCell id="BDDz4i-m53lXkyZx1Zcj-235" value="&lt;font style=&quot;font-size: 9px;&quot;&gt;(0,N)&lt;/font&gt;" style="text;html=1;strokeColor=none;fillColor=none;align=center;verticalAlign=middle;whiteSpace=wrap;rounded=0;fontSize=11;" vertex="1" parent="WIyWlLk6GJQsqaUBKTNV-1">
          <mxGeometry x="59.75" y="689.86" width="60" height="30" as="geometry" />
        </mxCell>
        <mxCell id="BDDz4i-m53lXkyZx1Zcj-236" value="&lt;font style=&quot;font-size: 9px;&quot;&gt;(0,N)&lt;/font&gt;" style="text;html=1;strokeColor=none;fillColor=none;align=center;verticalAlign=middle;whiteSpace=wrap;rounded=0;fontSize=11;" vertex="1" parent="WIyWlLk6GJQsqaUBKTNV-1">
          <mxGeometry x="59.63" y="719.86" width="60" height="30" as="geometry" />
        </mxCell>
        <mxCell id="BDDz4i-m53lXkyZx1Zcj-238" value="&lt;font style=&quot;font-size: 9px;&quot;&gt;(0,N)&lt;/font&gt;" style="text;html=1;strokeColor=none;fillColor=none;align=center;verticalAlign=middle;whiteSpace=wrap;rounded=0;fontSize=11;" vertex="1" parent="WIyWlLk6GJQsqaUBKTNV-1">
          <mxGeometry x="117.38" y="765.49" width="60" height="30" as="geometry" />
        </mxCell>
        <mxCell id="BDDz4i-m53lXkyZx1Zcj-239" value="&lt;font style=&quot;font-size: 9px;&quot;&gt;(1,1)&lt;/font&gt;" style="text;html=1;strokeColor=none;fillColor=none;align=center;verticalAlign=middle;whiteSpace=wrap;rounded=0;fontSize=11;" vertex="1" parent="WIyWlLk6GJQsqaUBKTNV-1">
          <mxGeometry x="117.63" y="881.55" width="60" height="30" as="geometry" />
        </mxCell>
        <mxCell id="BDDz4i-m53lXkyZx1Zcj-240" value="&lt;font style=&quot;font-size: 9px;&quot;&gt;(0,N)&lt;/font&gt;" style="text;html=1;strokeColor=none;fillColor=none;align=center;verticalAlign=middle;whiteSpace=wrap;rounded=0;fontSize=11;" vertex="1" parent="WIyWlLk6GJQsqaUBKTNV-1">
          <mxGeometry x="179.63" y="748.12" width="60" height="30" as="geometry" />
        </mxCell>
        <mxCell id="BDDz4i-m53lXkyZx1Zcj-241" value="&lt;font style=&quot;font-size: 9px;&quot;&gt;(0,N)&lt;/font&gt;" style="text;html=1;strokeColor=none;fillColor=none;align=center;verticalAlign=middle;whiteSpace=wrap;rounded=0;fontSize=11;" vertex="1" parent="WIyWlLk6GJQsqaUBKTNV-1">
          <mxGeometry x="179.63" y="875.4" width="60" height="30" as="geometry" />
        </mxCell>
        <mxCell id="BDDz4i-m53lXkyZx1Zcj-242" value="&lt;font style=&quot;font-size: 9px;&quot;&gt;(0,N)&lt;/font&gt;" style="text;html=1;strokeColor=none;fillColor=none;align=center;verticalAlign=middle;whiteSpace=wrap;rounded=0;fontSize=11;" vertex="1" parent="WIyWlLk6GJQsqaUBKTNV-1">
          <mxGeometry x="257.75" y="740.12" width="60" height="30" as="geometry" />
        </mxCell>
        <mxCell id="BDDz4i-m53lXkyZx1Zcj-243" value="&lt;font style=&quot;font-size: 9px;&quot;&gt;(0,N)&lt;/font&gt;" style="text;html=1;strokeColor=none;fillColor=none;align=center;verticalAlign=middle;whiteSpace=wrap;rounded=0;fontSize=11;" vertex="1" parent="WIyWlLk6GJQsqaUBKTNV-1">
          <mxGeometry x="264.75" y="886.4" width="60" height="30" as="geometry" />
        </mxCell>
        <mxCell id="BDDz4i-m53lXkyZx1Zcj-244" value="&lt;font style=&quot;font-size: 9px;&quot;&gt;(0,N)&lt;/font&gt;" style="text;html=1;strokeColor=none;fillColor=none;align=center;verticalAlign=middle;whiteSpace=wrap;rounded=0;fontSize=11;" vertex="1" parent="WIyWlLk6GJQsqaUBKTNV-1">
          <mxGeometry x="404" y="790.62" width="60" height="30" as="geometry" />
        </mxCell>
        <mxCell id="BDDz4i-m53lXkyZx1Zcj-245" value="&lt;font style=&quot;font-size: 9px;&quot;&gt;(1,1)&lt;/font&gt;" style="text;html=1;strokeColor=none;fillColor=none;align=center;verticalAlign=middle;whiteSpace=wrap;rounded=0;fontSize=11;" vertex="1" parent="WIyWlLk6GJQsqaUBKTNV-1">
          <mxGeometry x="560.96" y="864.4" width="60" height="30" as="geometry" />
        </mxCell>
        <mxCell id="BDDz4i-m53lXkyZx1Zcj-246" value="&lt;font style=&quot;font-size: 9px;&quot;&gt;(1,1)&lt;/font&gt;" style="text;html=1;strokeColor=none;fillColor=none;align=center;verticalAlign=middle;whiteSpace=wrap;rounded=0;fontSize=11;" vertex="1" parent="WIyWlLk6GJQsqaUBKTNV-1">
          <mxGeometry x="680" y="832.41" width="60" height="30" as="geometry" />
        </mxCell>
        <mxCell id="BDDz4i-m53lXkyZx1Zcj-247" value="&lt;font style=&quot;font-size: 9px;&quot;&gt;(0,N)&lt;/font&gt;" style="text;html=1;strokeColor=none;fillColor=none;align=center;verticalAlign=middle;whiteSpace=wrap;rounded=0;fontSize=11;" vertex="1" parent="WIyWlLk6GJQsqaUBKTNV-1">
          <mxGeometry x="625" y="719.86" width="60" height="30" as="geometry" />
        </mxCell>
        <mxCell id="BDDz4i-m53lXkyZx1Zcj-248" value="&lt;font style=&quot;font-size: 9px;&quot;&gt;(0,N)&lt;/font&gt;" style="text;html=1;strokeColor=none;fillColor=none;align=center;verticalAlign=middle;whiteSpace=wrap;rounded=0;fontSize=11;" vertex="1" parent="WIyWlLk6GJQsqaUBKTNV-1">
          <mxGeometry x="382" y="749.86" width="60" height="30" as="geometry" />
        </mxCell>
        <mxCell id="BDDz4i-m53lXkyZx1Zcj-250" value="&lt;font style=&quot;font-size: 9px;&quot;&gt;(0,N)&lt;/font&gt;" style="text;html=1;strokeColor=none;fillColor=none;align=center;verticalAlign=middle;whiteSpace=wrap;rounded=0;fontSize=11;" vertex="1" parent="WIyWlLk6GJQsqaUBKTNV-1">
          <mxGeometry x="530" y="735.49" width="60" height="30" as="geometry" />
        </mxCell>
        <mxCell id="BDDz4i-m53lXkyZx1Zcj-251" value="&lt;font style=&quot;font-size: 9px;&quot;&gt;(0,N)&lt;/font&gt;" style="text;html=1;strokeColor=none;fillColor=none;align=center;verticalAlign=middle;whiteSpace=wrap;rounded=0;fontSize=11;" vertex="1" parent="WIyWlLk6GJQsqaUBKTNV-1">
          <mxGeometry x="495" y="710.12" width="60" height="30" as="geometry" />
        </mxCell>
        <mxCell id="BDDz4i-m53lXkyZx1Zcj-252" value="&lt;font style=&quot;font-size: 9px;&quot;&gt;(0,N)&lt;/font&gt;" style="text;html=1;strokeColor=none;fillColor=none;align=center;verticalAlign=middle;whiteSpace=wrap;rounded=0;fontSize=11;" vertex="1" parent="WIyWlLk6GJQsqaUBKTNV-1">
          <mxGeometry x="338" y="692.86" width="60" height="30" as="geometry" />
        </mxCell>
        <mxCell id="BDDz4i-m53lXkyZx1Zcj-253" value="&lt;font style=&quot;font-size: 9px;&quot;&gt;(1,N)&lt;/font&gt;" style="text;html=1;strokeColor=none;fillColor=none;align=center;verticalAlign=middle;whiteSpace=wrap;rounded=0;fontSize=11;" vertex="1" parent="WIyWlLk6GJQsqaUBKTNV-1">
          <mxGeometry x="318.88" y="973.23" width="60" height="30" as="geometry" />
        </mxCell>
        <mxCell id="BDDz4i-m53lXkyZx1Zcj-254" value="&lt;font style=&quot;font-size: 9px;&quot;&gt;(0,N)&lt;/font&gt;" style="text;html=1;strokeColor=none;fillColor=none;align=center;verticalAlign=middle;whiteSpace=wrap;rounded=0;fontSize=11;" vertex="1" parent="WIyWlLk6GJQsqaUBKTNV-1">
          <mxGeometry x="450.01" y="973.23" width="60" height="30" as="geometry" />
        </mxCell>
        <mxCell id="V1cR3RjK268BLpqG6JqV-0" value="description" style="ellipse;whiteSpace=wrap;html=1;" vertex="1" parent="WIyWlLk6GJQsqaUBKTNV-1">
          <mxGeometry x="660" y="986" width="70" height="20" as="geometry" />
        </mxCell>
        <mxCell id="V1cR3RjK268BLpqG6JqV-1" value="" style="endArrow=none;html=1;rounded=0;" edge="1" parent="WIyWlLk6GJQsqaUBKTNV-1" source="V1cR3RjK268BLpqG6JqV-0" target="BDDz4i-m53lXkyZx1Zcj-14">
          <mxGeometry width="50" height="50" relative="1" as="geometry">
            <mxPoint x="737.96" y="941" as="sourcePoint" />
            <mxPoint x="614.71" y="986" as="targetPoint" />
            <Array as="points" />
          </mxGeometry>
        </mxCell>
        <mxCell id="V1cR3RjK268BLpqG6JqV-3" value="creation_date" style="ellipse;whiteSpace=wrap;html=1;fontSize=11;" vertex="1" parent="WIyWlLk6GJQsqaUBKTNV-1">
          <mxGeometry x="-16.76" y="826.48" width="76.51" height="20" as="geometry" />
        </mxCell>
        <mxCell id="V1cR3RjK268BLpqG6JqV-4" value="" style="endArrow=none;html=1;rounded=0;" edge="1" parent="WIyWlLk6GJQsqaUBKTNV-1" source="V1cR3RjK268BLpqG6JqV-3" target="BDDz4i-m53lXkyZx1Zcj-70">
          <mxGeometry width="50" height="50" relative="1" as="geometry">
            <mxPoint x="269" y="996" as="sourcePoint" />
            <mxPoint x="216" y="838" as="targetPoint" />
          </mxGeometry>
        </mxCell>
        <mxCell id="V1cR3RjK268BLpqG6JqV-7" value="amount" style="ellipse;whiteSpace=wrap;html=1;" vertex="1" parent="WIyWlLk6GJQsqaUBKTNV-1">
          <mxGeometry x="377" y="1045" width="70" height="20" as="geometry" />
        </mxCell>
        <mxCell id="V1cR3RjK268BLpqG6JqV-8" value="" style="endArrow=none;html=1;rounded=0;" edge="1" parent="WIyWlLk6GJQsqaUBKTNV-1" source="V1cR3RjK268BLpqG6JqV-7" target="BDDz4i-m53lXkyZx1Zcj-216">
          <mxGeometry width="50" height="50" relative="1" as="geometry">
            <mxPoint x="459.75" y="991.71" as="sourcePoint" />
            <mxPoint x="392.0952380952381" y="1015.9957142857145" as="targetPoint" />
          </mxGeometry>
        </mxCell>
        <mxCell id="sr9n53BuQWfxgXTFlZjj-1" value="&lt;u&gt;user_id&lt;/u&gt;" style="ellipse;whiteSpace=wrap;html=1;" vertex="1" parent="WIyWlLk6GJQsqaUBKTNV-1">
          <mxGeometry x="232" y="530" width="90" height="30" as="geometry" />
        </mxCell>
        <mxCell id="sr9n53BuQWfxgXTFlZjj-2" value="" style="endArrow=none;html=1;rounded=0;" edge="1" parent="WIyWlLk6GJQsqaUBKTNV-1" source="BDDz4i-m53lXkyZx1Zcj-20" target="sr9n53BuQWfxgXTFlZjj-1">
          <mxGeometry width="50" height="50" relative="1" as="geometry">
            <mxPoint x="343.31" y="545" as="sourcePoint" />
            <mxPoint x="433.31" y="620" as="targetPoint" />
          </mxGeometry>
        </mxCell>
        <mxCell id="sr9n53BuQWfxgXTFlZjj-3" value="&lt;u&gt;rec_id&lt;/u&gt;" style="ellipse;whiteSpace=wrap;html=1;" vertex="1" parent="WIyWlLk6GJQsqaUBKTNV-1">
          <mxGeometry x="108.63" y="971" width="67.5" height="20" as="geometry" />
        </mxCell>
        <mxCell id="sr9n53BuQWfxgXTFlZjj-4" value="" style="endArrow=none;html=1;rounded=0;" edge="1" parent="WIyWlLk6GJQsqaUBKTNV-1" source="sr9n53BuQWfxgXTFlZjj-3" target="BDDz4i-m53lXkyZx1Zcj-69">
          <mxGeometry width="50" height="50" relative="1" as="geometry">
            <mxPoint x="205.75" y="906" as="sourcePoint" />
            <mxPoint x="214" y="978" as="targetPoint" />
          </mxGeometry>
        </mxCell>
        <mxCell id="sr9n53BuQWfxgXTFlZjj-5" value="&lt;u&gt;ing_id&lt;/u&gt;" style="ellipse;whiteSpace=wrap;html=1;" vertex="1" parent="WIyWlLk6GJQsqaUBKTNV-1">
          <mxGeometry x="510.01" y="1056" width="70" height="30" as="geometry" />
        </mxCell>
        <mxCell id="sr9n53BuQWfxgXTFlZjj-6" value="" style="endArrow=none;html=1;rounded=0;" edge="1" parent="WIyWlLk6GJQsqaUBKTNV-1" source="sr9n53BuQWfxgXTFlZjj-5" target="BDDz4i-m53lXkyZx1Zcj-14">
          <mxGeometry width="50" height="50" relative="1" as="geometry">
            <mxPoint x="620" y="1057" as="sourcePoint" />
            <mxPoint x="592" y="1031" as="targetPoint" />
          </mxGeometry>
        </mxCell>
      </root>
    </mxGraphModel>
  </diagram>
</mxfile>
